# xmcd
#
# Track frame offsets:
#   150
#   12257
#   23855
#   34943
#   45744
#   59421
#   72519
#   82973
#   94419
#   106876
#   121165
#   134246
#   147718
#   159965
#   173238
#   186904
#   199793
#   214602
#   227720
#   240741
#   252879
#   263179
#   274543
#   287601
#   299191
#   310799
#   324361
#
# Disc length: 4466 seconds
#
# Revision: 0
# Processed by: cddbd v1.4PL0 Copyright (c) Steve Scherf et al.
# Submitted via: uFREEDB 1.6.0
#
DISCID=9a11701b
DTITLE=Martin, Dean - Tracks 1954-55
DYEAR=1900
DGENRE=Vocal
TTITLE0=Try Again
TTITLE1=I'll Gladly Make The Same Mistake Again
TTITLE2=Open Up The Doghouse (with Nat King Cole)
TTITLE3=Long Long Ago (with Nat King Cole)
TTITLE4=Let Me Go, Lover
TTITLE5=The Naughty Lady Of Shany Lane
TTITLE6=Mambo Italiano
TTITLE7=That's All I Want From You
TTITLE8=Young And Foolish
TTITLE9=Chee Chee Oo Chee (Sang The Little Bird)
TTITLE10=In Napoli
TTITLE11=The Lady With The Big Umbrella
TTITLE12=I Like Them All
TTITLE13=Chee Chee Oo Chee (Sang The Little Bird)
TTITLE14=Love Is All That Matters
TTITLE15=Simpatico
TTITLE16=Ridin' Into Love
TTITLE17=Relay-Ay-Voo (with Line Renaud)
TTITLE18=Two Sleepy People (with Line Renaud)
TTITLE19=I Know Your Mother Loves You
TTITLE20=Memories Are Made Of This
TTITLE21=Change Of Heart
TTITLE22=When You Pretend
TTITLE23=The Lucky Song
TTITLE24=When You Pretend
TTITLE25=You Look So Familiar
TTITLE26=Innamorata
EXTD=
EXTT0=
EXTT1=
EXTT2=
EXTT3=
EXTT4=
EXTT5=
EXTT6=
EXTT7=
EXTT8=
EXTT9=
EXTT10=
EXTT11=
EXTT12=
EXTT13=
EXTT14=
EXTT15=
EXTT16=
EXTT17=
EXTT18=
EXTT19=
EXTT20=
EXTT21=
EXTT22=
EXTT23=
EXTT24=
EXTT25=
EXTT26=
PLAYORDER=
